<?xml version="1.0" standalone="no"?>
<!DOCTYPE svg PUBLIC "-//W3C//DTD SVG 20010904//EN"
 "http://www.w3.org/TR/2001/REC-SVG-20010904/DTD/svg10.dtd">
<svg version="1.0" xmlns="http://www.w3.org/2000/svg"
 width="1425.000000pt" height="1425.000000pt" viewBox="0 0 1425.000000 1425.000000"
 preserveAspectRatio="xMidYMid meet">

<g transform="translate(0.000000,1425.000000) scale(0.100000,-0.100000)"
fill="#000000" stroke="none">
<path d="M0 7125 l0 -7125 7125 0 7125 0 0 7125 0 7125 -7125 0 -7125 0 0
-7125z m7535 2767 c270 -42 518 -122 695 -226 l60 -35 117 59 c195 98 426 167
685 206 145 21 512 29 678 15 354 -32 621 -103 870 -233 155 -81 255 -154 375
-273 117 -117 195 -223 270 -367 118 -227 154 -359 162 -605 l6 -163 -320 0
-320 0 -12 114 c-27 273 -116 470 -283 632 -161 156 -370 254 -657 306 -97 18
-156 21 -361 22 -263 0 -339 -8 -515 -59 -72 -21 -209 -76 -222 -89 -2 -2 21
-43 52 -90 104 -159 206 -396 270 -626 23 -84 65 -270 65 -290 0 -7 -118 -10
-345 -10 l-345 0 -6 28 c-38 168 -76 293 -119 401 -16 38 -19 41 -29 25 -19
-34 -20 -274 -2 -358 45 -201 175 -341 428 -460 153 -72 292 -117 758 -241
1255 -336 1210 -323 1410 -427 151 -79 254 -153 365 -263 159 -158 269 -350
328 -572 30 -115 31 -124 31 -338 1 -194 -2 -231 -22 -315 -51 -219 -133 -410
-250 -585 -84 -126 -266 -311 -377 -384 -268 -176 -633 -294 -1040 -336 -174
-18 -557 -21 -715 -5 -315 32 -646 122 -860 236 -35 19 -68 34 -72 34 -4 0
-68 -29 -140 -64 -198 -95 -393 -153 -648 -193 -169 -26 -694 -26 -865 1 -160
24 -358 75 -480 122 l-100 39 -1675 5 -1675 5 -3 296 -2 296 1004 1295 1003
1295 28 139 c99 501 309 962 594 1306 45 54 81 100 81 103 0 3 -562 5 -1250 5
l-1250 0 0 300 0 300 1816 0 c1583 0 1828 2 1908 15 164 28 267 34 521 30 185
-2 284 -9 380 -23z"/>
<path d="M6830 9314 c-70 -9 -80 -13 -80 -38 0 -16 -228 -317 -694 -920 -636
-820 -695 -901 -702 -944 -14 -86 -7 -529 10 -680 40 -365 142 -706 288 -965
128 -227 317 -436 511 -565 l108 -72 245 0 244 0 0 -85 c0 -47 3 -85 8 -85 4
0 36 -5 72 -10 104 -16 381 -13 503 5 123 18 248 52 353 96 l73 30 -48 72
c-63 94 -131 230 -170 341 -57 161 -101 430 -101 616 l0 90 319 0 318 0 6
-117 c6 -118 23 -224 53 -318 20 -63 104 -235 115 -235 14 0 80 127 126 241
58 145 104 309 144 512 l32 167 350 0 349 0 -6 -57 c-57 -479 -205 -917 -417
-1234 l-58 -87 69 -26 c231 -85 549 -122 915 -105 352 16 640 96 815 224 58
42 167 156 209 218 44 65 116 218 136 292 26 94 31 296 11 389 -49 219 -202
388 -471 521 -71 35 -184 83 -249 105 -65 22 -459 130 -875 241 -794 210 -880
235 -1013 296 -387 175 -610 439 -694 823 -27 121 -27 494 -1 625 27 130 80
287 132 389 25 49 45 91 45 93 0 9 -116 55 -213 83 -176 53 -309 72 -532 75
-110 2 -216 1 -235 -1z"/>
<path d="M4131 5872 c-305 -394 -556 -723 -559 -729 -3 -10 171 -13 847 -13
468 0 851 3 851 6 0 3 -31 49 -69 102 -221 312 -373 675 -460 1095 -16 78 -32
168 -36 200 -4 31 -10 57 -14 56 -3 0 -255 -323 -560 -717z"/>
</g>
</svg>
